<?xml version="1.0" encoding="UTF-8" standalone="no"?><svg xmlns="http://www.w3.org/2000/svg" xmlns:xlink="http://www.w3.org/1999/xlink" contentScriptType="application/ecmascript" contentStyleType="text/css" height="953px" preserveAspectRatio="none" style="width:692px;height:953px;" version="1.1" viewBox="0 0 692 953" width="692px" zoomAndPan="magnify"><defs><filter height="300%" id="faazvncm9zrlb" width="300%" x="-1" y="-1"><feGaussianBlur result="blurOut" stdDeviation="2.0"/><feColorMatrix in="blurOut" result="blurOut2" type="matrix" values="0 0 0 0 0 0 0 0 0 0 0 0 0 0 0 0 0 0 .4 0"/><feOffset dx="4.0" dy="4.0" in="blurOut2" result="blurOut3"/><feBlend in="SourceGraphic" in2="blurOut3" mode="normal"/></filter></defs><g><!--MD5=[7283a9eed84464550b6d5ebf39c68b05]
class Mastermind--><rect fill="#FEFECE" filter="url(#faazvncm9zrlb)" height="73.6094" id="Mastermind" style="stroke: #A80036; stroke-width: 1.5;" width="105" x="113" y="8"/><ellipse cx="128" cy="24" fill="#ADD1B2" rx="11" ry="11" style="stroke: #A80036; stroke-width: 1.0;"/><path d="M130.9688,29.6406 Q130.3906,29.9375 129.75,30.0859 Q129.1094,30.2344 128.4063,30.2344 Q125.9063,30.2344 124.5859,28.5859 Q123.2656,26.9375 123.2656,23.8125 Q123.2656,20.6875 124.5859,19.0313 Q125.9063,17.375 128.4063,17.375 Q129.1094,17.375 129.7578,17.5313 Q130.4063,17.6875 130.9688,17.9844 L130.9688,20.7031 Q130.3438,20.125 129.75,19.8516 Q129.1563,19.5781 128.5313,19.5781 Q127.1875,19.5781 126.5,20.6484 Q125.8125,21.7188 125.8125,23.8125 Q125.8125,25.9063 126.5,26.9766 Q127.1875,28.0469 128.5313,28.0469 Q129.1563,28.0469 129.75,27.7734 Q130.3438,27.5 130.9688,26.9219 L130.9688,29.6406 Z "/><text fill="#000000" font-family="sans-serif" font-size="12" lengthAdjust="spacingAndGlyphs" textLength="73" x="142" y="28.1543">Mastermind</text><line style="stroke: #A80036; stroke-width: 1.5;" x1="114" x2="217" y1="40" y2="40"/><text fill="#000000" font-family="sans-serif" font-size="11" lengthAdjust="spacingAndGlyphs" textLength="75" x="119" y="54.2104">maxAttempts</text><line style="stroke: #A80036; stroke-width: 1.5;" x1="114" x2="217" y1="60.8047" y2="60.8047"/><text fill="#000000" font-family="sans-serif" font-size="11" lengthAdjust="spacingAndGlyphs" textLength="31" x="119" y="75.0151">play()</text><!--MD5=[1a09df81ec6c7d9cbe6ced275dd3e291]
class CodeMaker--><rect fill="#FEFECE" filter="url(#faazvncm9zrlb)" height="124.8281" id="CodeMaker" style="stroke: #A80036; stroke-width: 1.5;" width="157" x="153" y="142"/><ellipse cx="192.75" cy="158" fill="#ADD1B2" rx="11" ry="11" style="stroke: #A80036; stroke-width: 1.0;"/><path d="M195.7188,163.6406 Q195.1406,163.9375 194.5,164.0859 Q193.8594,164.2344 193.1563,164.2344 Q190.6563,164.2344 189.3359,162.5859 Q188.0156,160.9375 188.0156,157.8125 Q188.0156,154.6875 189.3359,153.0313 Q190.6563,151.375 193.1563,151.375 Q193.8594,151.375 194.5078,151.5313 Q195.1563,151.6875 195.7188,151.9844 L195.7188,154.7031 Q195.0938,154.125 194.5,153.8516 Q193.9063,153.5781 193.2813,153.5781 Q191.9375,153.5781 191.25,154.6484 Q190.5625,155.7188 190.5625,157.8125 Q190.5625,159.9063 191.25,160.9766 Q191.9375,162.0469 193.2813,162.0469 Q193.9063,162.0469 194.5,161.7734 Q195.0938,161.5 195.7188,160.9219 L195.7188,163.6406 Z "/><text fill="#000000" font-family="sans-serif" font-size="12" lengthAdjust="spacingAndGlyphs" textLength="70" x="212.25" y="162.1543">CodeMaker</text><line style="stroke: #A80036; stroke-width: 1.5;" x1="154" x2="309" y1="174" y2="174"/><text fill="#000000" font-family="sans-serif" font-size="11" lengthAdjust="spacingAndGlyphs" textLength="107" x="159" y="188.2104">secretCombination</text><text fill="#000000" font-family="sans-serif" font-size="11" lengthAdjust="spacingAndGlyphs" textLength="72" x="159" y="201.0151">codeBreaker</text><line style="stroke: #A80036; stroke-width: 1.5;" x1="154" x2="309" y1="207.6094" y2="207.6094"/><text fill="#000000" font-family="sans-serif" font-size="11" lengthAdjust="spacingAndGlyphs" textLength="145" x="159" y="221.8198">CodeMaker(CodeBreaker)</text><text fill="#000000" font-family="sans-serif" font-size="11" lengthAdjust="spacingAndGlyphs" textLength="129" x="159" y="234.6245">prepareForNewGame()</text><text fill="#000000" font-family="sans-serif" font-size="11" lengthAdjust="spacingAndGlyphs" textLength="100" x="159" y="247.4292">answerProposal()</text><text fill="#000000" font-family="sans-serif" font-size="11" lengthAdjust="spacingAndGlyphs" textLength="144" x="159" y="260.2339">writeSecretCombination()</text><!--MD5=[daf47d429e3758f68e985f184238aa5d]
class CodeBreaker--><rect fill="#FEFECE" filter="url(#faazvncm9zrlb)" height="163.2422" id="CodeBreaker" style="stroke: #A80036; stroke-width: 1.5;" width="187" x="6" y="327"/><ellipse cx="54.75" cy="343" fill="#ADD1B2" rx="11" ry="11" style="stroke: #A80036; stroke-width: 1.0;"/><path d="M57.7188,348.6406 Q57.1406,348.9375 56.5,349.0859 Q55.8594,349.2344 55.1563,349.2344 Q52.6563,349.2344 51.3359,347.5859 Q50.0156,345.9375 50.0156,342.8125 Q50.0156,339.6875 51.3359,338.0313 Q52.6563,336.375 55.1563,336.375 Q55.8594,336.375 56.5078,336.5313 Q57.1563,336.6875 57.7188,336.9844 L57.7188,339.7031 Q57.0938,339.125 56.5,338.8516 Q55.9063,338.5781 55.2813,338.5781 Q53.9375,338.5781 53.25,339.6484 Q52.5625,340.7188 52.5625,342.8125 Q52.5625,344.9063 53.25,345.9766 Q53.9375,347.0469 55.2813,347.0469 Q55.9063,347.0469 56.5,346.7734 Q57.0938,346.5 57.7188,345.9219 L57.7188,348.6406 Z "/><text fill="#000000" font-family="sans-serif" font-size="12" lengthAdjust="spacingAndGlyphs" textLength="81" x="75.25" y="347.1543">CodeBreaker</text><line style="stroke: #A80036; stroke-width: 1.5;" x1="7" x2="192" y1="359" y2="359"/><text fill="#000000" font-family="sans-serif" font-size="11" lengthAdjust="spacingAndGlyphs" textLength="75" x="12" y="373.2104">maxAttempts</text><text fill="#000000" font-family="sans-serif" font-size="11" lengthAdjust="spacingAndGlyphs" textLength="132" x="12" y="386.0151">proposedCombinations</text><line style="stroke: #A80036; stroke-width: 1.5;" x1="7" x2="192" y1="392.6094" y2="392.6094"/><text fill="#000000" font-family="sans-serif" font-size="11" lengthAdjust="spacingAndGlyphs" textLength="126" x="12" y="406.8198">proposeCombination()</text><text fill="#000000" font-family="sans-serif" font-size="11" lengthAdjust="spacingAndGlyphs" textLength="175" x="12" y="419.6245">getLastProposedCombination()</text><text fill="#000000" font-family="sans-serif" font-size="11" lengthAdjust="spacingAndGlyphs" textLength="96" x="12" y="432.4292">askToPlayAgain()</text><text fill="#000000" font-family="sans-serif" font-size="11" lengthAdjust="spacingAndGlyphs" textLength="83" x="12" y="445.2339">writeAttemps()</text><text fill="#000000" font-family="sans-serif" font-size="11" lengthAdjust="spacingAndGlyphs" textLength="168" x="12" y="458.0386">writeProposedCombinations()</text><text fill="#000000" font-family="sans-serif" font-size="11" lengthAdjust="spacingAndGlyphs" textLength="129" x="12" y="470.8433">prepareForNewGame()</text><text fill="#000000" font-family="sans-serif" font-size="11" lengthAdjust="spacingAndGlyphs" textLength="128" x="12" y="483.6479">didAlreadyWonOrLost()</text><!--MD5=[28491d17d5ee38c9c116625a5ffc259a]
class Combination--><rect fill="#FEFECE" filter="url(#faazvncm9zrlb)" height="73.6094" id="Combination" style="stroke: #A80036; stroke-width: 1.5;" width="110" x="485.5" y="167.5"/><ellipse cx="500.5" cy="183.5" fill="#ADD1B2" rx="11" ry="11" style="stroke: #A80036; stroke-width: 1.0;"/><path d="M503.4688,189.1406 Q502.8906,189.4375 502.25,189.5859 Q501.6094,189.7344 500.9063,189.7344 Q498.4063,189.7344 497.0859,188.0859 Q495.7656,186.4375 495.7656,183.3125 Q495.7656,180.1875 497.0859,178.5313 Q498.4063,176.875 500.9063,176.875 Q501.6094,176.875 502.2578,177.0313 Q502.9063,177.1875 503.4688,177.4844 L503.4688,180.2031 Q502.8438,179.625 502.25,179.3516 Q501.6563,179.0781 501.0313,179.0781 Q499.6875,179.0781 499,180.1484 Q498.3125,181.2188 498.3125,183.3125 Q498.3125,185.4063 499,186.4766 Q499.6875,187.5469 501.0313,187.5469 Q501.6563,187.5469 502.25,187.2734 Q502.8438,187 503.4688,186.4219 L503.4688,189.1406 Z "/><text fill="#000000" font-family="sans-serif" font-size="12" lengthAdjust="spacingAndGlyphs" textLength="78" x="514.5" y="187.6543">Combination</text><line style="stroke: #A80036; stroke-width: 1.5;" x1="486.5" x2="594.5" y1="199.5" y2="199.5"/><text fill="#000000" font-family="sans-serif" font-size="11" lengthAdjust="spacingAndGlyphs" textLength="30" x="491.5" y="213.7104">value</text><text fill="#000000" font-family="sans-serif" font-size="11" lengthAdjust="spacingAndGlyphs" textLength="59" x="491.5" y="226.5151">rowLength</text><line style="stroke: #A80036; stroke-width: 1.5;" x1="486.5" x2="594.5" y1="233.1094" y2="233.1094"/><!--MD5=[e370ee5c0c15ce04544d5f5a73174d72]
class SecretCombination--><rect fill="#FEFECE" filter="url(#faazvncm9zrlb)" height="86.4141" id="SecretCombination" style="stroke: #A80036; stroke-width: 1.5;" width="259" x="228" y="365.5"/><ellipse cx="293.75" cy="381.5" fill="#ADD1B2" rx="11" ry="11" style="stroke: #A80036; stroke-width: 1.0;"/><path d="M296.7188,387.1406 Q296.1406,387.4375 295.5,387.5859 Q294.8594,387.7344 294.1563,387.7344 Q291.6563,387.7344 290.3359,386.0859 Q289.0156,384.4375 289.0156,381.3125 Q289.0156,378.1875 290.3359,376.5313 Q291.6563,374.875 294.1563,374.875 Q294.8594,374.875 295.5078,375.0313 Q296.1563,375.1875 296.7188,375.4844 L296.7188,378.2031 Q296.0938,377.625 295.5,377.3516 Q294.9063,377.0781 294.2813,377.0781 Q292.9375,377.0781 292.25,378.1484 Q291.5625,379.2188 291.5625,381.3125 Q291.5625,383.4063 292.25,384.4766 Q292.9375,385.5469 294.2813,385.5469 Q294.9063,385.5469 295.5,385.2734 Q296.0938,385 296.7188,384.4219 L296.7188,387.1406 Z "/><text fill="#000000" font-family="sans-serif" font-size="12" lengthAdjust="spacingAndGlyphs" textLength="119" x="314.25" y="385.6543">SecretCombination</text><line style="stroke: #A80036; stroke-width: 1.5;" x1="229" x2="486" y1="397.5" y2="397.5"/><line style="stroke: #A80036; stroke-width: 1.5;" x1="229" x2="486" y1="405.5" y2="405.5"/><text fill="#000000" font-family="sans-serif" font-size="11" lengthAdjust="spacingAndGlyphs" textLength="247" x="234" y="419.7104">SecretCombination() // randomly generated</text><text fill="#000000" font-family="sans-serif" font-size="11" lengthAdjust="spacingAndGlyphs" textLength="218" x="234" y="432.5151">calculateResult(ProposedCombination)</text><text fill="#000000" font-family="sans-serif" font-size="11" lengthAdjust="spacingAndGlyphs" textLength="36" x="234" y="445.3198">write()</text><!--MD5=[cf489b19c51ee25e76ddca093e62e620]
class ProposedCombination--><rect fill="#FEFECE" filter="url(#faazvncm9zrlb)" height="150.4375" id="ProposedCombination" style="stroke: #A80036; stroke-width: 1.5;" width="170" x="341.5" y="550"/><ellipse cx="356.5" cy="566" fill="#ADD1B2" rx="11" ry="11" style="stroke: #A80036; stroke-width: 1.0;"/><path d="M359.4688,571.6406 Q358.8906,571.9375 358.25,572.0859 Q357.6094,572.2344 356.9063,572.2344 Q354.4063,572.2344 353.0859,570.5859 Q351.7656,568.9375 351.7656,565.8125 Q351.7656,562.6875 353.0859,561.0313 Q354.4063,559.375 356.9063,559.375 Q357.6094,559.375 358.2578,559.5313 Q358.9063,559.6875 359.4688,559.9844 L359.4688,562.7031 Q358.8438,562.125 358.25,561.8516 Q357.6563,561.5781 357.0313,561.5781 Q355.6875,561.5781 355,562.6484 Q354.3125,563.7188 354.3125,565.8125 Q354.3125,567.9063 355,568.9766 Q355.6875,570.0469 357.0313,570.0469 Q357.6563,570.0469 358.25,569.7734 Q358.8438,569.5 359.4688,568.9219 L359.4688,571.6406 Z "/><text fill="#000000" font-family="sans-serif" font-size="12" lengthAdjust="spacingAndGlyphs" textLength="138" x="370.5" y="570.1543">ProposedCombination</text><line style="stroke: #A80036; stroke-width: 1.5;" x1="342.5" x2="510.5" y1="582" y2="582"/><text fill="#000000" font-family="sans-serif" font-size="11" lengthAdjust="spacingAndGlyphs" textLength="64" x="347.5" y="596.2104">stringValue</text><text fill="#000000" font-family="sans-serif" font-size="11" lengthAdjust="spacingAndGlyphs" textLength="33" x="347.5" y="609.0151">result</text><line style="stroke: #A80036; stroke-width: 1.5;" x1="342.5" x2="510.5" y1="615.6094" y2="615.6094"/><text fill="#000000" font-family="sans-serif" font-size="11" lengthAdjust="spacingAndGlyphs" textLength="90" x="347.5" y="629.8198">readFromUser()</text><text fill="#000000" font-family="sans-serif" font-size="11" lengthAdjust="spacingAndGlyphs" textLength="36" x="347.5" y="642.6245">write()</text><text fill="#000000" font-family="sans-serif" font-size="11" lengthAdjust="spacingAndGlyphs" textLength="139" x="347.5" y="655.4292">contains(Color, position)</text><text fill="#000000" font-family="sans-serif" font-size="11" lengthAdjust="spacingAndGlyphs" textLength="86" x="347.5" y="668.2339">contains(Color)</text><text fill="#000000" font-family="sans-serif" font-size="11" lengthAdjust="spacingAndGlyphs" textLength="61" x="347.5" y="681.0386">set(Result)</text><text fill="#000000" font-family="sans-serif" font-size="11" lengthAdjust="spacingAndGlyphs" textLength="56" x="347.5" y="693.8433">isWinner()</text><!--MD5=[2741598bdf59a7d7e0d5c97658fd3022]
class Result--><rect fill="#FEFECE" filter="url(#faazvncm9zrlb)" height="73.6094" id="Result" style="stroke: #A80036; stroke-width: 1.5;" width="71" x="322" y="760"/><ellipse cx="337" cy="776" fill="#ADD1B2" rx="11" ry="11" style="stroke: #A80036; stroke-width: 1.0;"/><path d="M339.9688,781.6406 Q339.3906,781.9375 338.75,782.0859 Q338.1094,782.2344 337.4063,782.2344 Q334.9063,782.2344 333.5859,780.5859 Q332.2656,778.9375 332.2656,775.8125 Q332.2656,772.6875 333.5859,771.0313 Q334.9063,769.375 337.4063,769.375 Q338.1094,769.375 338.7578,769.5313 Q339.4063,769.6875 339.9688,769.9844 L339.9688,772.7031 Q339.3438,772.125 338.75,771.8516 Q338.1563,771.5781 337.5313,771.5781 Q336.1875,771.5781 335.5,772.6484 Q334.8125,773.7188 334.8125,775.8125 Q334.8125,777.9063 335.5,778.9766 Q336.1875,780.0469 337.5313,780.0469 Q338.1563,780.0469 338.75,779.7734 Q339.3438,779.5 339.9688,778.9219 L339.9688,781.6406 Z "/><text fill="#000000" font-family="sans-serif" font-size="12" lengthAdjust="spacingAndGlyphs" textLength="39" x="351" y="780.1543">Result</text><line style="stroke: #A80036; stroke-width: 1.5;" x1="323" x2="392" y1="792" y2="792"/><text fill="#000000" font-family="sans-serif" font-size="11" lengthAdjust="spacingAndGlyphs" textLength="29" x="328" y="806.2104">black</text><text fill="#000000" font-family="sans-serif" font-size="11" lengthAdjust="spacingAndGlyphs" textLength="37" x="328" y="819.0151">whites</text><line style="stroke: #A80036; stroke-width: 1.5;" x1="323" x2="392" y1="825.6094" y2="825.6094"/><!--MD5=[6619e0831cac7f28b98219e168d06495]
class CodePeg--><rect fill="#FEFECE" filter="url(#faazvncm9zrlb)" height="48" id="CodePeg" style="stroke: #A80036; stroke-width: 1.5;" width="88" x="593.5" y="384.5"/><ellipse cx="608.5" cy="400.5" fill="#EB937F" rx="11" ry="11" style="stroke: #A80036; stroke-width: 1.0;"/><path d="M612.6094,406.5 L604.8906,406.5 L604.8906,394.1094 L612.6094,394.1094 L612.6094,396.2656 L607.3438,396.2656 L607.3438,398.9375 L612.1094,398.9375 L612.1094,401.0938 L607.3438,401.0938 L607.3438,404.3438 L612.6094,404.3438 L612.6094,406.5 Z "/><text fill="#000000" font-family="sans-serif" font-size="12" lengthAdjust="spacingAndGlyphs" textLength="56" x="622.5" y="404.6543">CodePeg</text><line style="stroke: #A80036; stroke-width: 1.5;" x1="594.5" x2="680.5" y1="416.5" y2="416.5"/><line style="stroke: #A80036; stroke-width: 1.5;" x1="594.5" x2="680.5" y1="424.5" y2="424.5"/><!--MD5=[a496920cb44919828682fc8d9176fd2a]
class KeyPeg--><rect fill="#FEFECE" filter="url(#faazvncm9zrlb)" height="48" id="KeyPeg" style="stroke: #A80036; stroke-width: 1.5;" width="77" x="319" y="894"/><ellipse cx="334" cy="910" fill="#EB937F" rx="11" ry="11" style="stroke: #A80036; stroke-width: 1.0;"/><path d="M338.1094,916 L330.3906,916 L330.3906,903.6094 L338.1094,903.6094 L338.1094,905.7656 L332.8438,905.7656 L332.8438,908.4375 L337.6094,908.4375 L337.6094,910.5938 L332.8438,910.5938 L332.8438,913.8438 L338.1094,913.8438 L338.1094,916 Z "/><text fill="#000000" font-family="sans-serif" font-size="12" lengthAdjust="spacingAndGlyphs" textLength="45" x="348" y="914.1543">KeyPeg</text><line style="stroke: #A80036; stroke-width: 1.5;" x1="320" x2="395" y1="926" y2="926"/><line style="stroke: #A80036; stroke-width: 1.5;" x1="320" x2="395" y1="934" y2="934"/><!--MD5=[97d96be0df6051bf14c0b4c3765822db]
link Mastermind to CodeMaker--><path d="M185.5623,93.4839 C185.5623,93.4839 195.5431,117.6042 200.4545,129.4735 " fill="none" id="Mastermind-CodeMaker" style="stroke: #A80036; stroke-width: 1.0;"/><polygon fill="#A80036" points="205.5335,141.7476,205.7884,131.902,203.6217,137.1275,198.3963,134.9609,205.5335,141.7476" style="stroke: #A80036; stroke-width: 1.0;"/><line style="stroke: #A80036; stroke-width: 1.0;" x1="203.6217" x2="200.5629" y1="137.1275" y2="129.7353"/><polygon fill="#A80036" points="180.9741,82.3957,179.5721,89.4692,185.5623,93.4839,186.9643,86.4104,180.9741,82.3957" style="stroke: #A80036; stroke-width: 1.0;"/><!--MD5=[c045c85882887bf501bc02d368135139]
link Mastermind to CodeBreaker--><path d="M148.6842,93.8118 C148.6842,93.8118 138.9067,126.5563 135.5,142 C123.0567,198.4102 114.2321,262.5457 108.4349,313.7618 " fill="none" id="Mastermind-CodeBreaker" style="stroke: #A80036; stroke-width: 1.0;"/><polygon fill="#A80036" points="106.9894,326.8294,111.9547,318.3237,107.5391,321.8597,104.0032,317.4442,106.9894,326.8294" style="stroke: #A80036; stroke-width: 1.0;"/><line style="stroke: #A80036; stroke-width: 1.0;" x1="107.5391" x2="108.4188" y1="321.8597" y2="313.9082"/><polygon fill="#A80036" points="152.3487,82.385,146.7075,86.8769,148.6842,93.8118,154.3254,89.3199,152.3487,82.385" style="stroke: #A80036; stroke-width: 1.0;"/><!--MD5=[d920d570c97c33d90aac7a065de0edf6]
link CodeMaker to CodeBreaker--><path d="M190.9986,267.0931 C179.6551,284.624 167.1241,303.99 155.0694,322.62 " fill="none" id="CodeMaker-&gt;CodeBreaker" style="stroke: #A80036; stroke-width: 1.0;"/><polygon fill="#A80036" points="152.3432,326.8333,160.5908,321.4502,155.0595,322.6355,153.8742,317.1042,152.3432,326.8333" style="stroke: #A80036; stroke-width: 1.0;"/><!--MD5=[266920d7ce394e61e9d7eee21ac72907]
link CodeBreaker to ProposedCombination--><path d="M202.866,484.7721 C202.866,484.7721 208.2586,488.4798 210.5,490 C248.9739,516.0942 292.2734,543.5225 329.9476,566.7888 " fill="none" id="CodeBreaker-ProposedCombination" style="stroke: #A80036; stroke-width: 1.0;"/><polygon fill="#A80036" points="341.4474,573.8698,335.881,565.7449,337.1898,571.2482,331.6864,572.557,341.4474,573.8698" style="stroke: #A80036; stroke-width: 1.0;"/><line style="stroke: #A80036; stroke-width: 1.0;" x1="337.1898" x2="330.3776" y1="571.2482" y2="567.0536"/><polygon fill="#FFFFFF" points="193.0148,477.9197,195.6563,484.6296,202.866,484.7721,200.2245,478.0622,193.0148,477.9197" style="stroke: #A80036; stroke-width: 1.0;"/><!--MD5=[a5f474c3a29667aaa963ee17c262b9e7]
link CodeMaker to SecretCombination--><path d="M276.4664,277.3026 C276.4664,277.3026 309.5625,330.8869 323.8771,354.0628 " fill="none" id="CodeMaker-SecretCombination" style="stroke: #A80036; stroke-width: 1.0;"/><polygon fill="#A80036" points="330.8893,365.4161,329.5631,355.6569,328.2618,361.1621,322.7567,359.8609,330.8893,365.4161" style="stroke: #A80036; stroke-width: 1.0;"/><line style="stroke: #A80036; stroke-width: 1.0;" x1="328.2618" x2="324.0579" y1="361.1621" y2="354.3557"/><polygon fill="#FFFFFF" points="270.1604,267.0931,269.9102,274.2999,276.4664,277.3026,276.7166,270.0959,270.1604,267.0931" style="stroke: #A80036; stroke-width: 1.0;"/><!--MD5=[324ce3fbc91b6fad145775bb65621994]
link SecretCombination to ProposedCombination--><path d="M371.2147,451.5323 C379.6831,478.1036 390.8154,513.033 400.8695,544.5796 " fill="none" id="SecretCombination-&gt;ProposedCombination" style="stroke: #A80036; stroke-width: 1.0; stroke-dasharray: 7.0,7.0;"/><polygon fill="#A80036" points="402.4733,549.6118,403.5515,539.8221,400.955,544.8479,395.9292,542.2514,402.4733,549.6118" style="stroke: #A80036; stroke-width: 1.0;"/><!--MD5=[f874647c3c9f57491b6e7b7bf233051a]
link SecretCombination to Result--><path d="M344.3205,451.6841 C336.5433,479.464 327.4677,516.5051 323.5,550 C315.6578,616.2038 312.3153,634.2783 323.5,700 C326.6201,718.3341 332.8348,737.8166 339.1072,754.4739 " fill="none" id="SecretCombination-&gt;Result" style="stroke: #A80036; stroke-width: 1.0; stroke-dasharray: 7.0,7.0;"/><polygon fill="#A80036" points="341.0524,759.5483,341.5659,749.7128,339.2627,754.8796,334.0959,752.5764,341.0524,759.5483" style="stroke: #A80036; stroke-width: 1.0;"/><!--MD5=[0adf20bcbfd7e10e0a51e6072b0dfeda]
link Combination to CodePeg--><path d="M563.4443,252.754 C563.4443,252.754 604.7862,339.6998 620.4493,372.6409 " fill="none" id="Combination-CodePeg" style="stroke: #A80036; stroke-width: 1.0;"/><polygon fill="#A80036" points="626.0473,384.4139,625.7948,374.5683,623.9002,379.8984,618.57,378.0037,626.0473,384.4139" style="stroke: #A80036; stroke-width: 1.0;"/><line style="stroke: #A80036; stroke-width: 1.0;" x1="623.9002" x2="620.4648" y1="379.8984" y2="372.6735"/><polygon fill="#A80036" points="558.2913,241.9167,557.2554,249.053,563.4443,252.754,564.4802,245.6177,558.2913,241.9167" style="stroke: #A80036; stroke-width: 1.0;"/><!--MD5=[50ba8f9cf4ac795bc8a90335c0749741]
link Result to KeyPeg--><path d="M357.5,846.2913 C357.5,846.2913 357.5,870.3568 357.5,880.9046 " fill="none" id="Result-KeyPeg" style="stroke: #A80036; stroke-width: 1.0;"/><polygon fill="#A80036" points="357.5,893.9903,361.5,884.9903,357.5,888.9903,353.5,884.9903,357.5,893.9903" style="stroke: #A80036; stroke-width: 1.0;"/><line style="stroke: #A80036; stroke-width: 1.0;" x1="357.5" x2="357.5001" y1="888.9903" y2="880.9904"/><polygon fill="#A80036" points="357.5,834.2913,353.5,840.2913,357.5,846.2913,361.5,840.2913,357.5,834.2913" style="stroke: #A80036; stroke-width: 1.0;"/><!--MD5=[ed81d3472c9069d2de3c2f5cd308846f]
reverse link Combination to SecretCombination--><path d="M493.3261,257.0873 C463.1863,290.6857 424.5858,333.7159 396.2432,365.3109 " fill="none" id="Combination&lt;-SecretCombination" style="stroke: #A80036; stroke-width: 1.0;"/><polygon fill="none" points="488.3692,252.1301,506.935,241.9167,498.7905,261.4787,488.3692,252.1301" style="stroke: #A80036; stroke-width: 1.0;"/><!--MD5=[2f10888865b2f559cc24db01ac34cee3]
reverse link Combination to ProposedCombination--><path d="M539.901,261.9403 C537.7678,320.6748 530.1343,413.8404 504.5,490 C497.6785,510.2667 487.6392,530.8812 477.0177,549.6987 " fill="none" id="Combination&lt;-ProposedCombination" style="stroke: #A80036; stroke-width: 1.0;"/><polygon fill="none" points="532.9136,261.3857,540.4683,241.5886,546.9082,261.7759,532.9136,261.3857" style="stroke: #A80036; stroke-width: 1.0;"/><!--MD5=[56a858877f3b765b77d25632c946f7a0]
link ProposedCombination to Result--><path d="M391.8682,711.3287 C391.8682,711.3287 381.8502,736.301 377.4378,747.2999 " fill="none" id="ProposedCombination-Result" style="stroke: #A80036; stroke-width: 1.0;"/><polygon fill="#A80036" points="372.4594,759.71,379.5227,752.8463,374.321,755.0695,372.0978,749.8678,372.4594,759.71" style="stroke: #A80036; stroke-width: 1.0;"/><line style="stroke: #A80036; stroke-width: 1.0;" x1="374.321" x2="377.2996" y1="755.0695" y2="747.6447"/><polygon fill="#FFFFFF" points="396.336,700.1915,390.3897,704.2708,391.8682,711.3287,397.8145,707.2494,396.336,700.1915" style="stroke: #A80036; stroke-width: 1.0;"/><!--MD5=[d83840e143d001619020d7869b3245af]
@startuml
class Mastermind{
  maxAttempts
  play()  
}
class CodeMaker{
  secretCombination
  codeBreaker
  CodeMaker(CodeBreaker)
  prepareForNewGame()  
  answerProposal()
  writeSecretCombination()
}
class CodeBreaker{
  maxAttempts
  proposedCombinations
  proposeCombination()
  getLastProposedCombination()
  askToPlayAgain()
  writeAttemps()
  writeProposedCombinations()
  prepareForNewGame()
  didAlreadyWonOrLost()
}
class Combination{
  value
  rowLength
}
class SecretCombination{
  SecretCombination() // randomly generated
  calculateResult(ProposedCombination)
  write()
}
class ProposedCombination{
  stringValue
  result
  readFromUser()
  write()
  contains(Color, position)
  contains(Color)
  set(Result)
  isWinner()
}
class Result{
  black
  whites
}
enum CodePeg
enum KeyPeg

Mastermind *- -> CodeMaker
Mastermind *- -> CodeBreaker

CodeMaker - -> CodeBreaker

CodeBreaker o- -> ProposedCombination
CodeMaker o- -> SecretCombination

SecretCombination ..> ProposedCombination
SecretCombination ..> Result
Combination *- -> CodePeg
Result *- -> KeyPeg

Combination <|-down- SecretCombination
Combination <|-down- ProposedCombination

ProposedCombination o- -> Result
@enduml

PlantUML version 1.2019.10(Fri Sep 13 20:53:03 UTC 2019)
(GPL source distribution)
Java Runtime: OpenJDK Runtime Environment
JVM: OpenJDK 64-Bit Server VM
Java Version: 1.8.0_222-heroku-b10
Operating System: Linux
Default Encoding: UTF-8
Language: en
Country: US
--></g></svg>